<?xml version="1.0" encoding="UTF-8"?><svg id="_레이어_1" xmlns="http://www.w3.org/2000/svg" viewBox="0 0 293.57 73.05"><path d="M62.31,0h-8.02c-.7,0-1.33.42-1.61,1.06l-20.5,47.95L11.29,1.05c-.28-.64-.91-1.05-1.61-1.05H1.75C.79,0,0,.79,0,1.75v1.55c0,.96.79,1.75,1.75,1.75h4.03v47.41H1.75c-.96,0-1.75.79-1.75,1.75v1.55c0,.96.79,1.75,1.75,1.75h13.2c.96,0,1.75-.79,1.75-1.75v-1.55c0-.96-.79-1.75-1.75-1.75h-4.12V12.71l19.25,44.08c.28.64.91,1.05,1.61,1.05h1.03c.7,0,1.33-.42,1.61-1.06L53.14,12.87v39.59h-4.12c-.96,0-1.75.79-1.75,1.75v1.55c0,.96.79,1.75,1.75,1.75h13.29c.96,0,1.75-.79,1.75-1.75v-1.55c0-.96-.79-1.75-1.75-1.75h-4.12V5.05h4.12c.96,0,1.75-.79,1.75-1.75v-1.55c0-.96-.79-1.75-1.75-1.75Z" style="fill:#040000;"/><path d="M107.47,52.46h-3.25v-13.96c0-13.74-5.26-19.35-18.14-19.35-11.27,0-16.66,5.75-16.69,5.8-.33.33-.51.8-.49,1.31.03.48.25.94.6,1.23l1.21,1.04c.71.61,1.76.55,2.39-.11.44-.43,4.55-4.22,12.98-4.22s12.2,3.08,12.94,10.93c-2.7-1.14-7.02-2.34-13.2-2.34-15.28,0-18.49,6.81-18.49,12.53,0,7.85,6.07,12.53,16.24,12.53,6.36,0,11.96-2.3,15.59-6.36v4.27c0,.96.79,1.75,1.75,1.75h6.56c.96,0,1.75-.79,1.75-1.75v-1.55c0-.96-.78-1.74-1.74-1.75ZM99.1,40.48c-.74,7.27-7.08,12.32-15.53,12.32-3.36,0-11.19-.73-11.19-7.48,0-6.18,7.31-7.48,13.44-7.48,7.44,0,11.62,1.73,13.28,2.64Z" style="fill:#040000;"/><path d="M144.07,26.2c.36-.31.59-.75.62-1.22l.03-.53h-.1c-.07-.28-.2-.54-.39-.74-.17-.19-4.14-4.56-11.74-4.56-4.18,0-8.06,1.87-10.85,5.17v-3.07c0-.96-.79-1.75-1.75-1.75h-6.47c-.96,0-1.75.79-1.75,1.75v1.55c0,.96.79,1.75,1.75,1.75h3.17v27.91h-3.17c-.96,0-1.75.79-1.75,1.75v1.55c0,.96.79,1.75,1.75,1.75h14.06c.96,0,1.75-.79,1.75-1.75v-1.55c0-.96-.79-1.75-1.75-1.75h-5.84v-13.96c0-9.29,5.59-14.3,10.85-14.3s7.9,2.83,7.93,2.86c.63.71,1.7.79,2.45.17l1.21-1.03Z" style="fill:#040000;"/><path d="M182.45,39.6h-1.55c-.96,0-1.75.79-1.75,1.75v11.11h-30.1L182.68,4.22c.21-.29.31-.63.31-1v-1.46c0-.96-.79-1.75-1.75-1.75h-35.2c-.96,0-1.75.79-1.75,1.75v13.29c0,.96.79,1.75,1.75,1.75h1.55c.96,0,1.75-.79,1.75-1.75V5.05h26.65l-33.63,48.24c-.21.29-.31.63-.31,1v1.47c0,.96.79,1.75,1.75,1.75h38.65c.96,0,1.75-.79,1.75-1.75v-14.41c0-.96-.79-1.75-1.75-1.75Z" style="fill:#040000;"/><path d="M205.84,51.44h-.03c-.34-.27-.81-.46-1.18-.36-.47.03-.9.24-1.19.58-.04.05-1.11,1.14-3.87,1.14-3.38,0-3.86-1.01-3.86-4.72V1.75c0-.96-.79-1.75-1.75-1.75h-6.47c-.96,0-1.75.79-1.75,1.75v1.55c0,.96.79,1.75,1.75,1.75h3.17v43.03c0,4.83,1.06,9.77,8.91,9.77,4.66,0,7.08-2.35,7.53-2.83.6-.7.57-1.75-.08-2.39l-1.19-1.19Z" style="fill:#040000;"/><path d="M226.4,19.15c-12.6,0-19.26,6.69-19.26,19.35s6.66,19.35,19.26,19.35,19.35-6.69,19.35-19.35-6.69-19.35-19.35-19.35ZM240.7,38.5c0,9.62-4.68,14.3-14.3,14.3s-14.21-4.54-14.21-14.3,4.65-14.3,14.21-14.3,14.3,4.81,14.3,14.3Z" style="fill:#040000;"/><path d="M292.32,19.58v-.08h-7.05c-.96,0-1.75.79-1.75,1.75v3.98c-3.54-3.88-8.98-6.07-15.16-6.07-11.52,0-18.4,7.23-18.4,19.35s6.88,19.35,18.4,19.35c6.18,0,11.62-2.18,15.16-6.03v1.87c0,8.95-5.35,14.3-14.3,14.3-5.31,0-8.95-1.17-11.13-3.56-.65-.72-1.72-.78-2.44-.15l-1.21,1.04c-.36.32-.57.75-.6,1.21-.03.47.14.94.46,1.29,3.22,3.51,8.1,5.22,14.92,5.22,11.94,0,19.35-7.41,19.35-19.35v-29.14h3.25c.96,0,1.75-.79,1.75-1.75v-1.55c0-.79-.53-1.46-1.25-1.68ZM283.52,38.5c0,10.54-7.83,14.3-15.16,14.3-8.61,0-13.35-5.08-13.35-14.3s4.74-14.3,13.35-14.3c7.33,0,15.16,3.76,15.16,14.3Z" style="fill:#040000;"/></svg>