<?xml version="1.0" encoding="UTF-8"?><svg id="_레이어_1" xmlns="http://www.w3.org/2000/svg" viewBox="0 0 130.5 130.5"><path d="M125.73,36.91h0c-2.44-6.57-8.4-14.64-15.97-21.59C98.39,4.88,85.87.16,69.17,0h-.57c-11.3,0-22.74,2.58-32.21,7.26-10.92,5.4-18.76,13.36-22.68,23.02-1.73,4.27-3.69,8.1-5.6,11.81-5.99,11.7-11.16,21.8-5.99,38.1,7.74,25.72,22.72,40.82,47.12,47.5,6.52,1.86,13.08,2.81,19.49,2.81,9.9,0,19.43-2.32,27.56-6.71,10.03-5.38,18.63-14.36,26.3-27.48,9.29-16.06,10.49-38.82,3.14-59.4ZM119.26,94.12c-7.27,12.44-15.36,20.93-24.73,25.95-12.68,6.85-28.4,8.13-44.28,3.59-22.99-6.3-37.1-20.52-44.4-44.77-4.63-14.6.17-23.98,5.74-34.86,1.93-3.78,3.93-7.69,5.72-12.1C25.09,12.75,48.66,4.17,68.58,4.17h.56c15.71.15,27.44,4.56,38.06,14.31,7.03,6.45,12.56,13.85,14.82,19.79v.23s.14.15.14.15c6.84,19.29,5.73,40.54-2.9,55.47Z" style="fill:#040000;"/><path d="M38.23,27.04c1.24.49,2.7.75,4.21.75,2.83,0,5.61-.86,7.62-2.36,2.03-1.32,3.45-3.62,3.7-6,.21-1.98-.41-3.82-1.73-5.19-3.08-3.38-8.31-3.62-11.87-2.41l-.11.04c-3.93,1.24-6.76,4.64-6.87,8.27-.1,3.08,1.74,5.6,5.05,6.91h0ZM35.78,20.22c.08-2.42,2.19-4.83,5.03-5.73l.16-.05c1.03-.35,2.18-.53,3.33-.53,2.43,0,4.58.82,5.89,2.26.97,1.01,1.08,2.16.99,2.95-.16,1.53-1.15,3.1-2.54,4-2.54,1.88-6.62,2.46-9.5,1.33-2.23-.89-3.42-2.39-3.36-4.24Z" style="fill:#040000;"/><path d="M38.95,31.37h0c.12.65.66,1.11,1.28,1.11.09,0,.17,0,.26-.03,8.11-1.73,15.76-3.36,19.98-13.57.29-.69,0-1.5-.66-1.81-.32-.15-.68-.16-1.01-.03-.32.13-.58.39-.72.73-3.5,8.46-9.16,10.06-18.11,11.97-.7.15-1.16.88-1.02,1.62Z" style="fill:#040000;"/><path d="M112.29,35.79l-.1-.06c-3.5-2.22-7.04-2.41-9.98-.51-3.41,2.21-5.45,6.99-5.2,12.18.29,8.04,5.8,15.05,15.93,20.27,2.07.97,3.78,1.44,5.24,1.44,1.18,0,2.2-.32,3.02-.95,2.02-1.54,2.74-4.62,2.35-9.96-.2-7.58-4.78-18.39-11.26-22.4ZM119.68,65.92c-1.02.78-2.92.52-5.65-.75-6.4-3.3-14.1-9.08-14.42-17.89-.2-4.21,1.36-8.02,3.96-9.71.93-.6,1.94-.9,3.01-.9,1.34,0,2.76.47,4.23,1.4l.16.1c5.66,3.5,9.8,13.44,9.99,20.17.3,4.15-.13,6.7-1.28,7.58Z" style="fill:#040000;"/><path d="M119.19,70.03h0c-.3-.17-.65-.2-.98-.1-.34.11-.62.36-.78.69-1.81,3.76-2.01,7.65-.59,11.57.19.54.67.89,1.22.89.16,0,.32-.03.48-.1.32-.13.58-.4.72-.73.14-.33.14-.7.02-1.04-1.14-3.16-.98-6.3.48-9.33.32-.67.07-1.5-.56-1.85Z" style="fill:#040000;"/><path d="M112.71,67.76c-.31-.17-.67-.2-1-.09-.33.11-.6.36-.76.68-.76,1.59-1.21,3.3-1.32,5.09-.05.76.5,1.42,1.21,1.47h.09c.68,0,1.25-.56,1.3-1.28.09-1.41.44-2.77,1.04-4.02.32-.67.07-1.5-.55-1.85Z" style="fill:#040000;"/><path d="M99.32,66.72c.5,0,.97-.31,1.18-.79l1.21-2.74c.3-.68.03-1.5-.62-1.83-.31-.15-.66-.18-.98-.06-.34.12-.61.38-.76.72l-1.21,2.74c-.3.68-.03,1.5.62,1.83.18.09.37.14.56.14Z" style="fill:#040000;"/><path d="M97.46,56.46h0c.19-.3.27-.66.21-1.02-.06-.37-.27-.7-.57-.91-.28-.2-.62-.27-.95-.21l-2.52.48c-.7.13-1.17.85-1.05,1.59.11.66.65,1.14,1.28,1.14.08,0,.16,0,.23-.02l2.52-.48c.34-.06.64-.27.84-.57Z" style="fill:#040000;"/><path d="M94.07,44.71h0c0-.74-.6-1.36-1.31-1.37-1.13,0-2.74.5-4.03,2.79-.36.65-.17,1.49.44,1.88.21.13.44.2.68.2.46,0,.88-.25,1.12-.67.37-.66.99-1.44,1.81-1.45.72,0,1.3-.63,1.29-1.39Z" style="fill:#040000;"/><path d="M97.17,39.57c.33-.11.6-.35.76-.68.16-.32.19-.69.08-1.04-.1-.35-.33-.64-.64-.81-.31-.17-.67-.21-1-.09-3.13,1.06-5.6.41-6.27-.1.03-.57-.28-1.1-.79-1.33-.32-.15-.68-.15-1.01-.01-.32.14-.58.4-.71.74-.31.78-.15,1.62.43,2.31.9,1.06,2.82,1.71,5.01,1.71,1.36,0,2.75-.24,4.12-.7Z" style="fill:#040000;"/><path d="M59.93,61.12c-.01-.1-.04-.21-.08-.3-.89-2.39-2.92-3.86-4.7-5.17l-.07-.05c-.44-.32-.86-.63-1.26-.95-.1-.08-.21-.14-.32-.19-1.04-.43-1.72.05-1.97.28-.65.61-.81,1.62-.48,3.01.2,1.17.82,4.75,3.7,6.03l.11.05c.51.22,1.22.36,1.88.36s1.59-.12,2.31-.72c.68-.56,1-1.42.86-2.35ZM57.56,61.76c-.42.1-1.18.11-1.7-.14l-.16-.07c-1.18-.57-2.01-2.04-2.53-4.51,1.83,1.45,3.53,2.85,4.39,4.72Z" style="fill:#040000;"/><path d="M82.68,100.64c-.34,0-.66.14-.9.38-1.76,1.78-3.04,3.92-3.8,6.36-1.01-1.67-2.5-3.16-4.34-4.35-7.35-4.65-18.02-4.64-25.93.03-3.54,2.18-5.44,5.11-5.35,8.25.1,3.32,2.46,6.45,6.46,8.56,3,1.69,6.93,2.92,10.79,3.38,1.22.15,2.46.23,3.69.23,3.23,0,6.23-.52,8.67-1.5l.12-.05c4.32-1.69,7-4.83,7.34-8.63.11-1.16-.02-2.34-.37-3.5.57-.01,1.07-.42,1.22-1,.6-2.24,1.71-4.18,3.29-5.78.51-.52.54-1.39.05-1.94-.24-.27-.56-.43-.95-.44ZM76.84,113.04c-.25,2.71-2.31,5.01-5.67,6.31l-.13.05c-3,1.21-7.05,1.61-11.14,1.11-3.55-.42-7.15-1.55-9.9-3.09-3.14-1.66-4.99-3.92-5.05-6.2-.06-2.07,1.37-4.12,4.04-5.76,3.46-2.05,7.7-3.17,11.92-3.17s8.21,1.1,11.38,3.1c3.1,2,4.8,4.86,4.55,7.65Z" style="fill:#040000;"/><path d="M39.62,98.68c-.28-.23-.62-.33-.97-.27-.35.05-.65.24-.86.54-.42.6-.31,1.46.25,1.92,2.41,1.96,2.86,3.73,1.65,6.52-.14.33-.16.7-.04,1.04.12.35.36.62.67.78.17.09.36.13.55.13.51,0,.97-.32,1.18-.8,1.72-3.98.95-7.11-2.43-9.86Z" style="fill:#040000;"/><path d="M49.81,95.15c-.18-.32-.46-.54-.8-.64-.32-.09-.67-.04-.96.13-.31.19-.54.5-.63.87-.36,1.52-.44,3.09-.23,4.64.09.68.64,1.19,1.29,1.19.06,0,.12,0,.19-.01.35-.05.65-.25.86-.54.2-.29.29-.65.24-1.01-.16-1.2-.1-2.41.18-3.59.08-.35.03-.72-.14-1.03Z" style="fill:#040000;"/><path d="M57.67,91.07c-.32.17-.56.47-.66.83-.58,2.02-1.44,3.93-2.54,5.67-.19.3-.26.67-.2,1.02.06.36.25.67.54.88.22.16.47.24.74.24.44,0,.84-.23,1.08-.61,1.25-1.97,2.21-4.12,2.87-6.4.21-.72-.17-1.49-.86-1.72-.32-.11-.67-.08-.97.08Z" style="fill:#040000;"/><path d="M65.32,98.64c.39,0,.76-.19,1.01-.51,1.44-1.87,2.07-4.12,1.82-6.51-.04-.38-.23-.72-.52-.95-.27-.21-.6-.31-.92-.27-.71.08-1.23.77-1.15,1.52.17,1.66-.25,3.17-1.25,4.47-.45.58-.37,1.45.18,1.93.23.21.53.32.83.32Z" style="fill:#040000;"/><path d="M75.05,103.52c.08,0,.15,0,.23-.02.7-.14,1.17-.85,1.05-1.6-.39-2.36.08-4.57,1.42-6.57.41-.61.28-1.47-.3-1.91-.28-.22-.63-.3-.97-.25-.35.06-.66.26-.86.56-1.73,2.58-2.37,5.57-1.86,8.65.11.66.65,1.14,1.28,1.14Z" style="fill:#040000;"/><path d="M103.7,92.72h-.15c-2.89.32-5.71,3.9-6.79,6.07-.59.97-1.03,2.33-1.18,3.64-.18,1.55.07,2.87.69,3.71.37.51,1.06,1.11,2.23,1.11.51,0,1.07-.12,1.67-.36,2.63-1.13,5.67-5.38,6.38-8.89.32-1.26.35-3.03-.51-4.19-.4-.53-1.11-1.16-2.34-1.08ZM104.02,97.33h0c-.54,2.67-2.97,6.19-4.81,6.99-.55.22-.84.19-.89.12-.42-.57-.15-2.91.64-4.18.02-.04.05-.08.07-.12,1.02-2.06,3.24-4.48,4.8-4.67.13,0,.17.02.17.03.18.24.23,1.03.03,1.83Z" style="fill:#040000;"/><path d="M30.81,31.69c-1.18-.17-2.33.36-3,1.36l-.07.1c-.88,1.19-.96,3.02-.2,4.43.6,1.1,1.57,1.73,2.68,1.73.17,0,.33-.01.5-.04,1-.16,1.88-.88,2.41-1.97.58-1.17.63-2.52.16-3.59-.43-1.11-1.35-1.86-2.48-2.01ZM30.83,36.02c-.16.33-.37.5-.51.52-.15.03-.33,0-.52-.33-.24-.44-.24-1.05,0-1.36l.11-.16c.16-.23.4-.26.49-.26.03,0,.05,0,.08,0,.11.01.32.08.41.33l.04.09c.14.3.1.77-.1,1.17Z" style="fill:#040000;"/><path d="M18.25,63.77c-1.37-2.09-3.61-3.45-5.85-3.56-.09,0-.18,0-.27,0-1.75,0-3.34.79-4.47,2.22-2.93,3.52-2.8,9.12-1.44,12.83l.04.11c1.38,4.01,4.65,6.8,7.96,6.8h.21c2.88-.1,5.11-2.25,6.11-5.88,1.08-4,.12-9.27-2.29-12.53ZM18.05,75.53c-.67,2.45-1.99,3.83-3.7,3.89-2.26.08-4.62-2.04-5.64-5l-.06-.16c-1.12-3.05-1.13-7.48.99-10.03.82-1.04,1.8-1.26,2.49-1.26h.16c1.42.07,2.94,1.03,3.87,2.45,1.93,2.61,2.74,6.96,1.88,10.12Z" style="fill:#040000;"/><path d="M22.78,84.24c-1.17-.16-2.32.36-3,1.36l-.07.1c-.88,1.2-.96,3.02-.2,4.43.6,1.1,1.57,1.73,2.68,1.73.17,0,.34-.01.5-.04,1-.16,1.87-.88,2.41-1.97.57-1.17.63-2.52.16-3.59-.43-1.1-1.36-1.86-2.49-2.01ZM22.8,88.56c-.16.33-.37.5-.51.52-.14.03-.33.01-.52-.33-.24-.44-.24-1.05,0-1.37l.11-.16c.16-.23.4-.26.5-.26.03,0,.05,0,.08,0,.11.01.32.08.41.33l.04.09c.14.3.1.77-.1,1.17Z" style="fill:#040000;"/></svg>